<svg xmlns="http://www.w3.org/2000/svg" width="18" height="18" viewBox="0 0 14 14">
  <path id="schedule-icon-outline" d="M6.26,10.13A3.87,3.87,0,1,1,10.131,14,3.874,3.874,0,0,1,6.26,10.13Zm.6,0a3.269,3.269,0,1,0,3.27-3.269A3.274,3.274,0,0,0,6.862,10.13Zm.175,2.329H1a1,1,0,0,1-1-1v-9.5a1,1,0,0,1,1-1H2.86V.3a.3.3,0,1,1,.6,0v.66h4.6V.3a.3.3,0,0,1,.6,0v.66H10.5a1,1,0,0,1,1,1V6.51a3.8,3.8,0,0,0-.6-.173V1.959a.4.4,0,0,0-.4-.4H8.659V2.3a.3.3,0,0,1-.6,0V1.56H3.46V2.3a.3.3,0,1,1-.6,0V1.56H1a.4.4,0,0,0-.4.4v9.5a.4.4,0,0,0,.4.4H6.666a3.931,3.931,0,0,0,.372.6h0Zm1.341-.568a.3.3,0,0,1,0-.423l2.607-2.61H9.716a.3.3,0,1,1,0-.6h2a.3.3,0,0,1,.3.3v2a.3.3,0,1,1-.6,0V9.279L8.8,11.892a.3.3,0,0,1-.213.091A.291.291,0,0,1,8.378,11.892ZM6.16,10.46h-.6v-.6h.6v.6h0Zm-1.2,0h-.6v-.6h.6v.6h0Zm-1.2,0h-.6v-.6h.6v.6h0Zm-1.2,0h-.6v-.6h.6v.6h0Zm3.6-1.2h-.6v-.6h.6v.6h0Zm-1.2,0h-.6v-.6h.6v.6h0Zm-1.2,0h-.6v-.6h.6v.6h0Zm-1.2,0h-.6v-.6h.6v.6h0Zm4.2-1.2v-.6h.568a3.935,3.935,0,0,0-.469.6Zm-.6,0h-.6v-.6h.6v.6h0Zm-1.2,0h-.6v-.6h.6v.6h0Zm-1.2,0h-.6v-.6h.6v.6h0Zm-1.2,0h-.6v-.6h.6v.6h0Zm5.5-1.2h-.1v-.6h.6v.332a3.95,3.95,0,0,0-.5.268Zm-.7,0h-.6v-.6h.6v.6h0Zm-1.2,0h-.6v-.6h.6v.6h0Zm-1.2,0h-.6v-.6h.6v.6h0Zm-1.2,0h-.6v-.6h.6v.6h0Zm-1.2,0h-.6v-.6h.6v.6h0Zm6.6-.479V6.26h.6v.018a3.924,3.924,0,0,0-.6.1h0Zm-7.2-1.5v-.6h7.8v.6Z"/>
</svg>
